<?xml version="1.0" encoding="UTF-8" standalone="no"?>
<!-- Created with Inkscape (http://www.inkscape.org/) -->

<svg
   width="300mm"
   height="300mm"
   viewBox="0 0 300 300"
   version="1.1"
   id="svg5"
   inkscape:version="1.1.2 (b8e25be833, 2022-02-05)"
   sodipodi:docname="SUCIcon.svg"
   xmlns:inkscape="http://www.inkscape.org/namespaces/inkscape"
   xmlns:sodipodi="http://sodipodi.sourceforge.net/DTD/sodipodi-0.dtd"
   xmlns="http://www.w3.org/2000/svg"
   xmlns:svg="http://www.w3.org/2000/svg">
  <sodipodi:namedview
     id="namedview7"
     pagecolor="#ffffff"
     bordercolor="#666666"
     borderopacity="1.0"
     inkscape:pageshadow="2"
     inkscape:pageopacity="0.0"
     inkscape:pagecheckerboard="0"
     inkscape:document-units="mm"
     showgrid="true"
     inkscape:zoom="1.2810466"
     inkscape:cx="388.74464"
     inkscape:cy="676.79037"
     inkscape:window-width="2880"
     inkscape:window-height="1514"
     inkscape:window-x="3829"
     inkscape:window-y="-11"
     inkscape:window-maximized="1"
     inkscape:current-layer="layer1">
    <inkscape:grid
       type="xygrid"
       id="grid824" />
  </sodipodi:namedview>
  <defs
     id="defs2">
    <inkscape:path-effect
       effect="fill_between_many"
       method="originald"
       linkedpaths="#path6454,0,1|"
       id="path-effect6988" />
  </defs>
  <g
     inkscape:label="Layer 1"
     inkscape:groupmode="layer"
     id="layer1">
    <path
       inkscape:original-d="M 0.61744,0.03851667"
       inkscape:path-effect="#path-effect6988"
       d="m 208.25373,220.57446 c 2.54357,-3.81508 3.63523,-8.23987 3.07381,-12.45881 -0.3959,-2.97494 -0.53667,-3.42721 -4.0045,-12.86526 l -2.92206,-7.9527 -3.5208,0.18069 c -11.71454,0.60123 -16.7394,0.68007 -32.92584,0.5166 l -17.75928,-0.17933 -15.00568,16.49575 c -32.4321,35.6526 -48.638385,53.3252 -57.94375,63.18639 -2.308837,2.44674 -5.051008,5.38012 -6.093708,6.51857 -2.252257,2.45914 -5.455007,5.16921 -7.776236,6.58004 -1.847145,1.12268 -3.380426,2.44825 -10.723301,9.27047 -2.726869,2.53354 -5.195369,4.64545 -5.485538,4.69312 -0.595515,0.0979 -0.957133,-0.54472 -0.615535,-1.09383 0.124187,-0.19967 2.053892,-2.06929 4.288245,-4.15477 8.621907,-8.04744 11.816442,-10.7951 15.166573,-13.04496 0.89373,-0.60022 3.148411,-2.66021 5.010383,-4.57774 6.353401,-6.54311 24.613808,-26.3404 47.680987,-51.69405 5.28544,-5.80933 13.91678,-15.29225 19.18077,-21.07317 5.26398,-5.78092 9.48968,-10.59196 9.39043,-10.69122 -0.14825,-0.14823 -6.91233,-0.13184 -23.7109,0.0572 l -1.76039,0.0198 -0.13547,-2.5729 c -0.0746,-1.41509 -0.0311,-5.74162 0.096,-9.61453 0.32311,-9.8276 0.3181,-10.13301 -0.23147,-14.14425 -0.43574,-3.18028 -0.4559,-4.12151 -0.17985,-8.39577 0.17098,-2.64767 0.50346,-6.15455 0.7388,-7.79307 0.34673,-2.41383 0.39469,-4.34109 0.25281,-10.15619 -0.20174,-8.26943 0.039,-11.99104 1.22045,-18.87268 1.51426,-8.81963 2.60319,-21.815122 2.82114,-33.668635 0.0898,-4.883658 0.40838,-11.094675 0.81961,-15.978687 0.57969,-6.884855 0.68079,-9.805695 0.7313,-21.12486 0.052,-11.630201 -0.008,-13.880134 -0.53124,-19.635278 -0.80391,-8.858558 -0.77507,-8.635718 -1.46428,-11.31876 -0.51634,-2.010065 -0.55234,-2.418031 -0.23087,-2.616703 0.20946,-0.129476 1.79261,-0.314046 3.51811,-0.410194 1.72549,-0.0962 5.5138,-0.359697 8.41846,-0.58567 3.06633,-0.23856 11.75549,-0.507678 20.71859,-0.641694 15.66027,-0.234161 21.37466,-0.574742 33.98936,-2.0257834 3.10852,-0.357568 11.11056,-1.020243 16.3853,-1.356927 6.8771,-0.438943 11.16587,-0.770447 16.11447,-1.245575 8.31979,-0.798808 13.02359,-0.915309 17.46862,-0.432664 3.77069,0.409414 6.36453,1.156668 6.36453,1.833515 0,0.277751 -0.64184,1.127444 -2.13125,2.8214034 -0.26196,0.29791 -2.28417,2.308837 -4.49384,4.468721 -2.20966,2.159883 -4.87302,4.90204 -5.91858,6.093708 -1.04556,1.191654 -4.59232,4.973613 -7.88171,8.404342 -3.28937,3.430741 -8.78378,9.514424 -12.20979,13.519309 -3.42602,4.004884 -6.87501,8.022885 -7.66444,8.928865 -9.6642,11.0912 -17.16329,20.17593 -22.26265,26.969988 -6.89499,9.186427 -10.33217,12.999627 -18.01007,19.980257 -5.62466,5.113842 -10.69784,10.117882 -10.69784,10.552062 0,0.18867 0.75439,0.92183 1.6764,1.62921 0.92203,0.7074 3.34066,2.58051 5.37471,4.16247 2.03409,1.58194 5.08825,3.88757 6.78709,5.12358 4.10221,2.98472 8.66711,6.65359 12.20802,9.81182 1.58956,1.41777 3.00881,2.65113 3.15389,2.74078 0.54744,0.33834 12.32487,-2.00976 21.03911,-4.19462 15.31775,-3.84052 20.05465,-5.95087 24.85933,-11.07509 3.21201,-3.42566 4.99634,-7.01566 6.20331,-12.48079 0.60069,-2.72 0.62136,-3.22688 0.568,-13.926842 -0.0639,-12.812369 -0.38573,-19.34395 -1.29078,-26.194806 -0.35421,-2.681161 -0.57898,-5.044269 -0.49953,-5.251362 0.16368,-0.426526 1.05591,-0.509211 1.29636,-0.120151 0.36677,0.593456 1.49536,10.609472 1.74331,15.471585 0.47267,9.268572 0.62421,22.871514 0.29367,26.358386 -0.89956,9.48906 -4.80107,16.58621 -11.6704,21.22928 -1.699,1.14837 -5.69674,3.11257 -7.77875,3.82188 -2.63838,0.89888 -9.67647,2.85237 -15.1234,4.19765 -4.18286,1.03308 -7.89056,1.81852 -16.27652,3.44807 -0.78404,0.15234 -1.36906,0.36833 -1.30007,0.47997 0.069,0.11161 2.34536,1.96122 5.05858,4.11023 10.12987,8.02326 11.56098,9.21153 15.00022,12.45472 6.41685,6.05107 9.40489,8.63709 15.15763,13.11823 5.33307,4.15425 7.82012,6.18719 15.58173,12.73684 1.71301,1.44553 5.18643,4.18471 7.71871,6.08708 2.53227,1.90236 5.00563,3.88021 5.49636,4.39518 l 0.89226,0.93634 -1.70474,0.78716 -1.70474,0.78718 -5.55204,-0.0328 c -6.26369,-0.0372 -9.87559,-0.33264 -17.87489,-1.46225 -5.27256,-0.74455 -13.43954,-1.34296 -18.3804,-1.34677 -2.028,-9.4e-4 -2.25217,0.0481 -2.13458,0.47219 0.0722,0.26068 1.43148,3.98928 3.02052,8.28576 3.44518,9.31525 3.75127,10.48453 3.76854,14.39638 0.0159,3.57597 -0.64283,6.27513 -2.26831,9.29602 -2.06428,3.83634 -2.49648,6.32502 -7.82427,12.26748 -6.95337,7.75559 -14.51596,16.54712 -26.42221,17.87004 13.80259,-4.47661 23.5295,-17.14683 31.74988,-29.10413 z"
       id="path6990"
       style="fill:#ffffff" />
    <path
       style="stroke-width:0.270831"
       d="m 208.25373,220.57446 c 2.54357,-3.81508 3.63523,-8.23987 3.07381,-12.45881 -0.3959,-2.97494 -0.53667,-3.42721 -4.0045,-12.86526 l -2.92206,-7.9527 -3.5208,0.18069 c -11.71454,0.60123 -16.7394,0.68007 -32.92584,0.5166 l -17.75928,-0.17933 -15.00568,16.49575 c -32.4321,35.6526 -48.638385,53.3252 -57.94375,63.18639 -2.308837,2.44674 -5.051008,5.38012 -6.093708,6.51857 -2.252257,2.45914 -5.455007,5.16921 -7.776236,6.58004 -1.847145,1.12268 -3.380426,2.44825 -10.723301,9.27047 -2.726869,2.53354 -5.195369,4.64545 -5.485538,4.69312 -0.595515,0.0979 -0.957133,-0.54472 -0.615535,-1.09383 0.124187,-0.19967 2.053892,-2.06929 4.288245,-4.15477 8.621907,-8.04744 11.816442,-10.7951 15.166573,-13.04496 0.89373,-0.60022 3.148411,-2.66021 5.010383,-4.57774 6.353401,-6.54311 24.613808,-26.3404 47.680987,-51.69405 5.28544,-5.80933 13.91678,-15.29225 19.18077,-21.07317 5.26398,-5.78092 9.48968,-10.59196 9.39043,-10.69122 -0.14825,-0.14823 -6.91233,-0.13184 -23.7109,0.0572 l -1.76039,0.0198 -0.13547,-2.5729 c -0.0746,-1.41509 -0.0311,-5.74162 0.096,-9.61453 0.32311,-9.8276 0.3181,-10.13301 -0.23147,-14.14425 -0.43574,-3.18028 -0.4559,-4.12151 -0.17985,-8.39577 0.17098,-2.64767 0.50346,-6.15455 0.7388,-7.79307 0.34673,-2.41383 0.39469,-4.34109 0.25281,-10.15619 -0.20174,-8.26943 0.039,-11.99104 1.22045,-18.87268 1.51426,-8.81963 2.60319,-21.815122 2.82114,-33.668635 0.0898,-4.883658 0.40838,-11.094675 0.81961,-15.978687 0.57969,-6.884855 0.68079,-9.805695 0.7313,-21.12486 0.052,-11.630201 -0.008,-13.880134 -0.53124,-19.635278 -0.80391,-8.858558 -0.77507,-8.635718 -1.46428,-11.31876 -0.51634,-2.010065 -0.55234,-2.418031 -0.23087,-2.616703 0.20946,-0.129476 1.79261,-0.314046 3.51811,-0.410194 1.72549,-0.0962 5.5138,-0.359697 8.41846,-0.58567 3.06633,-0.23856 11.75549,-0.507678 20.71859,-0.641694 15.66027,-0.234161 21.37466,-0.574742 33.98936,-2.0257834 3.10852,-0.357568 11.11056,-1.020243 16.3853,-1.356927 6.8771,-0.438943 11.16587,-0.770447 16.11447,-1.245575 8.31979,-0.798808 13.02359,-0.915309 17.46862,-0.432664 3.77069,0.409414 6.36453,1.156668 6.36453,1.833515 0,0.277751 -0.64184,1.127444 -2.13125,2.8214034 -0.26196,0.29791 -2.28417,2.308837 -4.49384,4.468721 -2.20966,2.159883 -4.87302,4.90204 -5.91858,6.093708 -1.04556,1.191654 -4.59232,4.973613 -7.88171,8.404342 -3.28937,3.430741 -8.78378,9.514424 -12.20979,13.519309 -3.42602,4.004884 -6.87501,8.022885 -7.66444,8.928865 -9.6642,11.0912 -17.16329,20.17593 -22.26265,26.969988 -6.89499,9.186427 -10.33217,12.999627 -18.01007,19.980257 -5.62466,5.113842 -10.69784,10.117882 -10.69784,10.552062 0,0.18867 0.75439,0.92183 1.6764,1.62921 0.92203,0.7074 3.34066,2.58051 5.37471,4.16247 2.03409,1.58194 5.08825,3.88757 6.78709,5.12358 4.10221,2.98472 8.66711,6.65359 12.20802,9.81182 1.58956,1.41777 3.00881,2.65113 3.15389,2.74078 0.54744,0.33834 12.32487,-2.00976 21.03911,-4.19462 15.31775,-3.84052 20.05465,-5.95087 24.85933,-11.07509 3.21201,-3.42566 4.99634,-7.01566 6.20331,-12.48079 0.60069,-2.72 0.62136,-3.22688 0.568,-13.926842 -0.0639,-12.812369 -0.38573,-19.34395 -1.29078,-26.194806 -0.35421,-2.681161 -0.57898,-5.044269 -0.49953,-5.251362 0.16368,-0.426526 1.05591,-0.509211 1.29636,-0.120151 0.36677,0.593456 1.49536,10.609472 1.74331,15.471585 0.47267,9.268572 0.62421,22.871514 0.29367,26.358386 -0.89956,9.48906 -4.80107,16.58621 -11.6704,21.22928 -1.699,1.14837 -5.69674,3.11257 -7.77875,3.82188 -2.63838,0.89888 -9.67647,2.85237 -15.1234,4.19765 -4.18286,1.03308 -7.89056,1.81852 -16.27652,3.44807 -0.78404,0.15234 -1.36906,0.36833 -1.30007,0.47997 0.069,0.11161 2.34536,1.96122 5.05858,4.11023 10.12987,8.02326 11.56098,9.21153 15.00022,12.45472 6.41685,6.05107 9.40489,8.63709 15.15763,13.11823 5.33307,4.15425 7.82012,6.18719 15.58173,12.73684 1.71301,1.44553 5.18643,4.18471 7.71871,6.08708 2.53227,1.90236 5.00563,3.88021 5.49636,4.39518 l 0.89226,0.93634 -1.70474,0.78716 -1.70474,0.78718 -5.55204,-0.0328 c -6.26369,-0.0372 -9.87559,-0.33264 -17.87489,-1.46225 -5.27256,-0.74455 -13.43954,-1.34296 -18.3804,-1.34677 -2.028,-9.4e-4 -2.25217,0.0481 -2.13458,0.47219 0.0722,0.26068 1.43148,3.98928 3.02052,8.28576 3.44518,9.31525 3.75127,10.48453 3.76854,14.39638 0.0159,3.57597 -0.64283,6.27513 -2.26831,9.29602 -2.06428,3.83634 -2.49648,6.32502 -7.82427,12.26748 -6.95337,7.75559 -14.51596,16.54712 -26.42221,17.87004 13.80259,-4.47661 23.5295,-17.14683 31.74988,-29.10413 z M 250.391,188.01607 c 0.42479,-0.25117 0.008,-0.63935 -3.11455,-2.90368 -3.85366,-2.7941 -6.17274,-4.65429 -14.12086,-11.32651 -2.77152,-2.32661 -7.14539,-5.86096 -9.71972,-7.8541 -5.78108,-4.47595 -8.79731,-7.0564 -14.70836,-12.58336 -5.595,-5.23143 -6.65592,-6.13797 -12.18063,-10.40815 -2.38333,-1.84211 -5.65756,-4.44386 -7.27609,-5.78164 l -2.94276,-2.43235 -2.60927,0.31499 c -26.05549,3.14538 -24.95286,3.04777 -24.95286,2.20889 0,-0.31295 0.26104,-0.65482 0.60935,-0.79807 0.33517,-0.13784 3.9,-0.62922 7.92183,-1.09197 9.94806,-1.14462 15.85485,-1.87124 16.60683,-2.04288 0.58887,-0.13449 0.54183,-0.22059 -0.75853,-1.38975 -3.71444,-3.33958 -6.609,-5.68762 -12.32749,-9.9999 -8.90839,-6.71775 -13.65137,-10.39634 -14.89552,-11.55279 l -1.08312,-1.00675 3.38517,-3.41545 c 1.86187,-1.87848 6.00575,-5.82049 9.20865,-8.759982 7.55362,-6.93243 10.52825,-10.271256 17.87295,-20.061254 4.57453,-6.097543 14.61973,-18.30559 20.05644,-24.374836 1.13419,-1.266125 3.14902,-3.590765 4.47739,-5.165826 7.30061,-8.656406 12.73301,-14.760666 17.44672,-19.604525 2.90482,-2.985031 6.05931,-6.341399 7.00996,-7.458584 0.95064,-1.117184 4.02783,-4.30608 6.83817,-7.086454 2.81035,-2.780373 5.10974,-5.1738304 5.10974,-5.3187764 0,-0.325086 -0.86353,-0.478511 -5.01039,-0.89025 -3.75779,-0.373105 -8.06588,-0.229371 -16.24988,0.542164 -3.12809,0.294902 -7.5765,0.664707 -9.88534,0.821808 -13.80299,0.939185 -16.85653,1.177424 -21.26026,1.6586514 -14.86707,1.624638 -19.77464,1.920724 -35.74976,2.156847 -8.49056,0.12544 -16.89987,0.360059 -18.68737,0.521252 -1.78748,0.161179 -5.1812,0.403915 -7.54159,0.539408 -2.3604,0.135463 -4.34806,0.302782 -4.41703,0.371753 -0.069,0.06891 0.0624,0.778356 0.29203,1.576398 0.22961,0.798042 0.60379,3.583776 0.83149,6.190523 0.2277,2.606749 0.55293,6.1411 0.72272,7.854119 0.45599,4.600384 0.33386,28.415843 -0.17568,34.260178 -0.84811,9.727466 -0.9873,12.213773 -1.22063,21.801925 -0.31333,12.874419 -1.24718,23.216311 -2.98318,33.036431 -0.87588,4.95473 -1.09051,8.76183 -1.01565,18.0153 0.0579,7.15613 -0.0103,9.13864 -0.39084,11.37493 -0.72897,4.28293 -0.8956,10.54856 -0.37092,13.94783 0.61521,3.9858 0.84592,8.42296 0.4741,9.11773 -0.33924,0.63386 -0.58138,15.08453 -0.25818,15.40819 0.10806,0.10817 0.53463,0.19663 0.94792,0.1964 10.2583,-0.006 24.42433,-0.18418 24.76729,-0.31282 0.24948,-0.0935 4.5482,-4.67945 9.55276,-10.19087 6.63983,-7.31233 9.28054,-10.04391 9.77029,-10.10645 1.63389,-0.20863 0.65061,1.0938 -8.00187,10.59924 l -8.673,9.52798 15.5115,0.22417 c 15.1838,0.21943 22.37692,0.0907 36.50094,-0.65261 6.00529,-0.3161 15.06261,-0.0103 20.17693,0.68358 1.48959,0.20178 4.6381,0.62995 6.99673,0.95149 7.36558,1.00406 18.29201,1.37873 19.49343,0.66841 z M 179.41692,42.926275 c -0.78196,-0.328219 -1.64413,-0.779568 -1.91592,-1.002993 -0.27182,-0.223439 -0.85077,-0.593299 -1.28659,-0.821919 -1.25317,-0.657384 -1.71234,-1.923746 -1.72729,-4.763791 -0.027,-5.130185 1.53826,-6.993327 6.80627,-8.10149 2.54572,-0.535507 3.00116,-0.506675 4.70116,0.29755 2.66801,1.262171 3.21057,2.557365 3.06649,7.32007 -0.0792,2.618777 -0.19952,3.399277 -0.63919,4.147394 -0.56626,0.963536 -2.8288,2.414424 -3.81412,2.445847 -0.31034,0.0097 -0.64776,0.101491 -0.74985,0.203613 -0.26264,0.262632 -2.12698,0.891224 -2.61299,0.881006 -0.22343,-0.0041 -1.04603,-0.277068 -1.82797,-0.605287 z M 68.236487,163.4589 c -0.184429,-0.48131 1.323041,-30.3903 1.696047,-33.65081 1.89011,-16.52169 10.753219,-26.66247 26.000508,-29.74862 1.117177,-0.226122 7.860158,-1.350412 14.984398,-2.498432 11.99543,-1.93295 12.98593,-2.05451 13.39649,-1.64396 0.38889,0.3889 0.39463,0.49037 0.0468,0.82651 -0.25503,0.24643 -4.98832,1.12112 -13.26106,2.45057 -7.07547,1.137052 -13.802325,2.250952 -14.948554,2.475332 -9.709185,1.90066 -16.970324,7.15817 -20.907935,15.1387 -1.895136,3.84094 -3.332101,9.09933 -3.811532,13.94781 -0.09579,0.96822 -0.518718,8.66533 -0.939953,17.10468 -0.42122,8.43934 -0.848245,15.47757 -0.948959,15.64051 -0.249641,0.40393 -1.146351,0.3749 -1.306195,-0.0424 z"
       id="path6454"
       sodipodi:nodetypes="ssscsscssssssssscsssscssssssssssssssssssssssssssssssssssssssssssssssssssssssscccssssssssccssssssscsssssssscssssssssssssssssccsssssssssscsssscssssssssssssssssssssssssssssssss"
       transform="translate(-0.55581333,0.35262333)"
       inkscape:export-filename="C:\projects\kotlin\SUC\path6454.png"
       inkscape:export-xdpi="100"
       inkscape:export-ydpi="100" />
  </g>
</svg>
